<svg version="1.1" xmlns="http://www.w3.org/2000/svg" xmlns:xlink="http://www.w3.org/1999/xlink" width="512.000000pt" height="512.000000pt" viewBox="0,0,256,256"><g fill="#0865de" fill-rule="nonzero" stroke="none" stroke-width="1" stroke-linecap="butt" stroke-linejoin="miter" stroke-miterlimit="10" stroke-dasharray="" stroke-dashoffset="0" font-family="none" font-weight="none" font-size="none" text-anchor="none" style="mix-blend-mode: normal"><g transform="translate(0,0.02102) scale(0.5,0.5)"><g transform="translate(0,512) scale(0.1,-0.1)"><path d="M2960,5104c-394,-57 -704,-271 -868,-599c-118,-238 -142,-383 -142,-876v-349h-339c-188,0 -351,-4 -364,-9c-14,-6 -35,-20 -46,-32c-21,-22 -21,-29 -21,-483c0,-422 2,-463 18,-482c34,-43 47,-44 406,-44h346v-1080v-1080l29,-32l29,-33l466,-3c411,-2 470,-1 497,13c62,32 59,-18 59,1150v1065h400c288,0 406,3 425,12c55,25 55,29 55,517v451l-29,32l-29,33l-412,3l-411,3l3,323l3,322l30,59c33,64 88,107 162,127c21,6 169,12 328,14c160,3 301,7 313,10c13,3 35,17 48,31l24,26v432c0,424 0,432 -21,454c-11,12 -32,26 -46,32c-40,15 -801,9 -913,-7z"></path></g></g></g></svg>