<svg version="1.1" xmlns="http://www.w3.org/2000/svg" xmlns:xlink="http://www.w3.org/1999/xlink" width="512.000000pt" height="512.000000pt" viewBox="0,0,256,256"><g fill="#0865de" fill-rule="nonzero" stroke="none" stroke-width="1" stroke-linecap="butt" stroke-linejoin="miter" stroke-miterlimit="10" stroke-dasharray="" stroke-dashoffset="0" font-family="none" font-weight="none" font-size="none" text-anchor="none" style="mix-blend-mode: normal"><g transform="translate(-0.1773,-0.09775) scale(0.5,0.5)"><g transform="translate(0,512) scale(0.1,-0.1)"><path d="M4120,4614c-138,-17 -326,-72 -435,-126c-322,-161 -578,-476 -724,-892c-27,-76 -29,-87 -14,-81c10,4 61,18 113,33c80,21 117,26 235,26c126,1 145,-1 190,-22c60,-28 109,-73 138,-127c19,-35 22,-56 22,-170c0,-117 -3,-139 -29,-215c-100,-298 -447,-823 -654,-989c-108,-87 -166,-88 -247,-7c-92,92 -179,304 -264,641c-47,185 -67,291 -150,775c-70,412 -89,503 -130,622c-93,276 -253,437 -475,479c-225,42 -437,-40 -805,-316c-98,-73 -791,-642 -884,-724c-6,-6 227,-291 237,-291c2,0 77,45 167,100c90,55 180,106 201,112c111,33 238,-79 354,-313c65,-130 125,-297 215,-601c401,-1357 396,-1340 497,-1528c74,-138 140,-230 231,-320c131,-130 242,-180 402,-180c96,0 209,19 309,51c187,61 455,223 685,415c459,382 1135,1195 1472,1769c280,477 379,839 332,1220c-42,340 -205,553 -489,636c-64,18 -104,22 -270,24c-107,2 -211,1 -230,-1z"></path></g></g></g></svg>